# xmcd
# Copyright (C) 1995-1998 Ti Kan
#
# Track frame offsets:
#       150
#       15501
#       30568
#       44963
#       58809
#       69135
#       82822
#       93402
#       110283
#       134617
#       150610
#       166449
#
# Disc length: 2711 seconds
#
# Revision: 0
# Processed by: cddbd v1.5.2PL0 Copyright (c) Steve Scherf et al.
# Submitted via: CD-Import v1.0
#
DISCID=960a950c
DTITLE=Dirty Pretty Things - Romance At Short Notice
DYEAR=2008
DGENRE=
TTITLE0=Buzzards And Crows
TTITLE1=Hippy's Son
TTITLE2=Plastic Hearts
TTITLE3=Tired Of England
TTITLE4=Come Closer
TTITLE5=Faultines
TTITLE6=Kicks Or Consumption
TTITLE7=Best Face
TTITLE8=Truth Begins
TTITLE9=Chinese Dogs
TTITLE10=The North
TTITLE11=Blood On My Shoes
EXTD=
EXTT0=
EXTT1=
EXTT2=
EXTT3=
EXTT4=
EXTT5=
EXTT6=
EXTT7=
EXTT8=
EXTT9=
EXTT10=
EXTT11=
PLAYORDER=
